<svg xmlns="http://www.w3.org/2000/svg" xml:space="preserve" viewBox="0 0 172 172">
  <rect fill="#f4e3d7" width="172" height="172" />
  <path fill="#28170b" d="M15.8 169.4c1-2.5 3.4-6.9 5-9.3 1.2-1.8 3-3.7 6.2-7.2 5.4-5.6 6.6-7 9-9.8A133 133 0 0 0 49 125l-2.5 1.2c-3.3 1.6-4.7 2-6.7 2-2.3 0-4.1-.8-5.7-2.5-1.4-1.5-1.6-2.3-.3-1 .8.7 2 1.3 2.6 1.3l-.7-1.2-1-1.4c0-.1-.4-.3-1-.4-2.2-.4-5-2.6-6.3-5.1-.7-1.4-1-3.3-.6-4 .3-.4.3-.4.3.1 0 .6 1 2 1.3 2 .2 0 0-.7-.3-1.5-.7-2.2-.8-5.9 0-7.5.3-.7.7-1.4 1-1.5.3-.4.2-.5-.6-1.4-1.3-1.2-1.8-2.9-1.8-5.6a6 6 0 0 1 .7-3.3c1-1.8 1.3-1.8 1.1 0-.1 1.4.2 2.8.7 2.8.2 0 .3-.7.3-1.7 0-.9.2-2 .4-2.6.5-1.4 2.1-3.5 3.4-4.4l1.2-.7-.8-1c-.7-1-1.4-2.6-1.7-4.4a20 20 0 0 0-.6-2 12 12 0 0 1 .3-6.5c.8-1.9 2.6-4.7 4.6-7 2.4-2.8 2.6-3.3 2.2-5.2-.8-3.8.8-10.1 3.2-13 1-1 1-1.2 1.1-4 .3-4.5 1.2-8.4 2.6-10.5.4-.5 1.2-1.2 1.9-1.5.8-.5 1.3-1 1.5-1.6.7-2 3.3-5.7 5.2-7.5.8-.8 1.3-1 2.4-1.1a8.6 8.6 0 0 0 4.3-2l-.6.3-1.9 1c-1.1.3-2.5.5-2.5.4a62 62 0 0 1 8.9-5.7c1-.7 3.4-1.9 4.1-1.9a30.3 30.3 0 0 0-8.7 7.3c-2 2.2-2 2.6-.3 1 .5-.5.7-.6.8-.3 0 .2 1.4-1.1 3.2-3a29.4 29.4 0 0 1 5.7-5c-.5 0 1-.4 1.9-.5 1 0 .3.6-1.2 1.2a9.9 9.9 0 0 0-4.8 3.7l-.9 1.6 1.6-1.6a12 12 0 0 1 3.5-2.6c3.2-1.5 3.8-1.5 1.4 0-4.6 3.1-5.6 4-6.5 5.7-.8 1.8-1.4 4.1-.8 3.8.1 0 .3-.3.3-.5 0-.6 1.3-3 2.1-4l3.2-2.6c2.3-1.5 2.8-1.7 2-.7-.3.3-.5 1-.6 1.6v1.2l.2-1.1c.2-.7.6-1.4 1-1.8.8-.6 1-.7 3.3-.7 2 0 2.2-.1 1.6-.3-1.2-.4-4-.4-4.5 0l-.4.2 1.5-1.2c1.8-1.3 2.4-1.3 5.3-.5 2.6.7 3 .5.5-.3a7 7 0 0 1-2-.8c0-.2 2.4-.8 3.4-.8s4.2 1 4.5 1.4c.3.3 0 .5-1.9 1a21 21 0 0 0-6 3.3 5.5 5.5 0 0 0-1.8 4.8 6 6 0 0 0 .4 1.9c.4.2.9 1.8.9 2.6 0 .5 0 .6.3.4.3-.3 0-2.1-.3-2.3-.2-.1-.3-.3-.3-.4a625.6 625.6 0 0 0 7.4 3.4 38 38 0 0 1 11.1 6.9c1.8 2.2 2.4 5 1.5 6.3-.4.5-.4.6.1.6 1 0 2-.5 3.1-1.6 2.4-2.2 6.1-3.3 11.5-3.3 3.8 0 3.9 0 5.4 2.4 1.1 1.7 3 3.1 6.5 4.9a34 34 0 0 1 7.8 5c1.5 1.4 1.7 1.8 1 2.4l-.3.5c0 .1 1.1.2 2.5.2 1.5 0 3.1 0 3.9.3 1 .3 1.2.5 1.2 1 0 1-.9 3-2 4.1l-1.7 2.3c-.7 1.1-.8 1.3-.6 3.1.1 1.6 0 2-.4 3-.6 1.4-2.6 3.8-3 3.7l-1.4.4c-.8.4-1.8.5-4.4.6h-3.3l3-.2c3.1-.2 3.9-.4 5.3-1.5 1-.7 2.4-2.6 2.4-3 0-.2-.3.2-.7.8a8 8 0 0 1-4 3c-1.4.3-4.8.2-5.7-.2-.4-.2-.6-.3-.3-.3.7.2 4.4.5 3.8.3-.2-.1-.6-.6-.8-1.1-.1-.6-.5-1.3-.9-1.6-.7-.7-1-1.8-1.4-5.4-.6-6-1.4-9.1-2.7-11.7-1.3-2.5-1.5-2.5-3.1-1-1.5 1.4-1.9 1.6-2.4 1-.6-.7-1.3-1-1.7-.7-.3.2-.5 0-1-1-.6-1.5-1.1-2-1.7-1.8-.5.2-.5 1.3.2 2 1 1.4.4 2.2-1.9 2.3-1.2 0-1.5.1-1.5.5 0 .5 1.8 1.3 3.7 1.7l1.1.2-1 .4c-.6.3-1.9.6-3 .7l-2.6.4c-.5.1-1.6 0-2.5-.2l-2-.4c-.5 0-3.6 2.9-3.6 3.4 0 1 2 2.7 8.2 7 1.7 1.2 4.2 3.2 5.6 4.6 2.8 2.7 4.2 3.5 6.2 3.5.8 0 2.2.2 3 .4 1.3.3 2.4.4 4.3.3 4.4-.3 7.2-1.4 9.4-3.8 1.2-1.3 1.5-1.4 2.4-1.4.6 0 1.2.1 1.3.3.5.4.4 2.7 0 3.8-.3.8-.5 1-1 .8-1.2-.4-3.7.9-3.7 2 0 .1 2.5.5 5.1.6.6 0 1 0 1 .2l-.5 1.6c-.3.8-.5 2-.5 2.9 0 1.3-.1 1.5-.6 1.7-.5.1-.5.2 0 1 .2.3.5.6.6.4 0-.1.3.2.6.9.2.6.4 1.1.3 1.2-.2.2-.7-.6-.7-1.2 0-.4-.1-.5-.3-.5-.2.1-.5-.2-.8-.6-.2-.5-.6-.8-.8-.8-.6 0-.6.3 0 1.2.3.5.3.6 0 .6-.2 0 0 .2.3.6.3.3.6.9.7 1.2.2.6.2.6-.5.2-.4-.3-.7-.6-.7-.8 0-.2-.3-.7-.7-1.2-.7-.8-.6-1 .2-.3.6.5.7.1.1-.6-.3-.5-.4-.5-.8-.1s-.4.5 0 1.4c.4.9.4 1 0 .7-.3-.3-.4-.3-.2 0 0 .3.3.5.5.6.2 0 .4.3.4.6 0 .2-.1.3-.3.2-.1 0-.2 0-.2.2 0 .8-2 2.2-3.6 2.6-.8.2-.8.2-.1.2.3 0 1.2-.2 2-.6 1.4-.7 1.9-.7.6.1-1 .7-3.5 1.2-4.5 1-.4 0-.7 0-.6.2 0 0 .9.2 1.9.2 2 0 3.7-.7 4.5-1.9.4-.4.8-.8 1-.8.3 0 .4 0 .2-.2-.2 0-.4-.5-.5-1-.2-.5-.1-.7 0-.5.2 0 .4.4.4.6 0 .3 0 .3.2.1.2-.5.6-.4.8.2.1.4.3.5.6.3.2-.2.3-.3 0-.6l-.4-1-.3-1.2-.2-.5.4.5c.5.8 1 2.5.9 2.8v.3c.2 0 .4.2.5.4v-.9c-.1-1.6.2-1.8.7-.6.4.7.4.8 0 .8-.3 0-.2.1.3.5.4.2.7.6.7.8 0 .2.1.2.3.1.2 0 .1-.3-.1-.6a2 2 0 0 1-.4-1.2v-.8l.3.7c.2.4.4.7.5.6.3-.3.8 1 .6 1.5l.1.5c.5 0 .3-1.3-.2-2.3l-1-2.5c-.6-1.4-.6-1.4 0-.7a12 12 0 0 1 2 4.5 6 6 0 0 0 .6 1.7c0-.3 1.5 4 1.5 4.5l-.4-.3c-.3-.5-.3-.4 0 .3.5 1 .6 4.9.2 4.9-.2 0-.3.2-.3.4 0 1-1.6 2.3-3.3 2.6l-1 .2.6-.7.6-.7-.9.5a7 7 0 0 1-4.4.3c-.7-.3-1.4-.1-6.6 1.6-8.4 2.8-9.5 3.5-10 6.5-.4 2.6-.8 3.8-1.9 5.9l-1.1 2.6 1 2c1 1.3 4 6.7 4 7l-2.6-2.5a17 17 0 0 0-5-3.9c-1.4-.7-4.7-2.7-7.4-4.5L98 114a239.9 239.9 0 0 0-20.6-10.2c-.3.2 5 3.6 16.7 10.9l3.8 2.5-4 1.6a61.6 61.6 0 0 1-23.6 4c-8-.8-14.2-3.9-21.2-10.7-2.6-2.4-2.8-2.6-2.2-1.5a34.4 34.4 0 0 0 14.2 11.7L69 126a98 98 0 0 1 15.3 9.6 92 92 0 0 1 12.4 10.1l2.5 2.6.4-1.6c.4-2 2-3.8 6-6.6 1.8-1.1 4.4-3 5.8-4.1 3.3-2.6 5-3.3 8.3-3.5l2.6-.1 1.5 2.3c1.3 1.9 2.5 3.2 2.5 2.6l-1.2-2.2-1.2-2.2c0-.3 3.8-.4 4.5-.1 1 .3 3 2.7 4.1 4.9a19 19 0 0 0 5.3 6.3c3.8 3 4.3 3.7 8.2 9.7 5.3 8.4 7.8 12 8.8 13.3.9.9 2.5 4 2.5 4.6 0 .2-23 .3-71.3.3H14.7Zm125.5-72.7a12 12 0 0 0-4.9-2.5c-.5 0-.3.1.6.5 1.5.5 3.4 1.5 4.4 2.4 1.1.9 1 .6-.1-.4zm1.2.3-1.8-1.8-1.8-1.7 1.7 1.8c1.6 1.7 1.9 2 1.9 1.7zm.5-1.2c-.6-.9-1.5-1.6-2-1.6l.6.5c.4.3 1 .8 1.2 1.2l.6.7s0-.4-.4-.8zm.4-.6c-.4-.5-.7-1-.7-1.2 0-.4-2-2.5-2.4-2.5-.1 0 .1.4.6.7.4.4 1 1 1.2 1.5.4.7 1.6 2.3 1.9 2.3l-.6-.8zm-5.4-2a1 1 0 0 0-.6 0c-.2.1 0 .2.3.2.4 0 .5-.1.3-.2zm-8-1.5h-.5.1c.3.1.4 0 .4 0zm2.6-.7c1.3-.5 2.2-2 1.8-2.8-.2-.4-.2-.3-.4.4-.3 1.4-1.4 2.3-3 2.7-.8.2-.8.2-.2.2a5 5 0 0 0 1.8-.5zm5.9-.2c0-.1-.3-.3-.7-.4l-.6.1c0 .1.2.3.6.3l.6.2.1-.2zm-7.7-.6c-.2-.1 0-.3.3-.4.7-.2 1.6-1.6 1.6-2.6v-.8l-.7 1c-.9 1.2-2.5 2-4.2 2-1.1 0-1.2.1-.7.3.5.2.2.2-.9.1-1.8 0-1.8.1 0 .4 1.6.2 5 .2 4.6 0zm1.6-.4c.7-.3 1.2-1 1.5-2.2 0-.4-.1-.2-.5.4a5 5 0 0 1-1.4 1.7c-1 .6-.7.7.4.1zm-3.1-1.2c.5-.1 1-.4 1.1-.5.1-.1-.3 0-.8 0-.6.2-1.8.3-2.8.2a9 9 0 0 0-1.8 0c0 .1 1.7.6 2.5.6.5 0 1.3-.1 1.8-.3zm-2.7-1.5c1.5-1 1.8-2 .3-1a5 5 0 0 1-3 .9c-1.3 0-1.8.2-1.4.3 1 .4 3.4.3 4.1-.2zm4-1s-.2 0-.4.3l-.4.8c0 .1.2 0 .4-.3l.4-.7zm3.7.4c0-.1 0-.2-.2-.2l-.2.2v.3c.2 0 .4-.1.4-.3zm-8-.8c.5-.4 1-.8 1-1 0-.2-.3 0-.9.4-.7.5-1.3.6-2.6.6-1.1 0-1.4.1-1 .3 1 .4 2.6.3 3.5-.3zm-93.9-5 .8-2c1-2 2.3-3.7 3.5-4.3.8-.4 1.6-1.8 2-3.5l.1-.9-1.3 1c-.7.4-2 1.6-2.9 2.4-2.3 2.3-3.2 4.3-2.8 6.5.1 1 .6 1.5.6.8zm49.7-17.3c0-.3 0-.2-.5.6-.3.7-.3.7.1.2.3-.3.4-.7.4-.8zm4.6-5.8c-.9-1.6-2.5-3.1-4.4-4a14 14 0 0 1-1.6-.9s.1-.6.4-1.1c1-2.2 2.1-5.3 2-6.6v-1.2l-.9 1.8a14.7 14.7 0 0 1-6.5 6.3c-2 .8-3.5 1-5.4.4-1.8-.6-3-1.4-3.7-2.7-.7-1.3-.8-.7 0 .7A6.5 6.5 0 0 0 70 53l1.8.6c1.3.6 3 .7 4.5.1.8-.2 1.2-.3 1.6 0 .4.2.4.2 0 0-.3 0-.5 0-.5.2 0 .5-2.2 1.2-5.2 1.8-3 .6-4 1-1.8.7 2.3-.3 4.7-1 6-1.6 1.9-.8 2.5-.5 1.4.6-1 1.1-2.1 1.6-4.6 2-2.4.6-3.4 1.3-3.6 2.8l-.2 1 .4-1.1c.6-1.4 1.2-1.9 3.8-2.4 2.5-.5 3.9-1 4.8-2l.6-.8 1.1 1c1.4 1.2 1.8 2 1.8 3.3.1 1.3.5 1 .5-.2 0-1.6-.4-2.9-1-3-.6 0-2.2-1-2.2-1.3l.4-.5c.5-.5 1.6.2 2.3 1.4.3.4.5.7.5.5l-.7-1.2c-.8-1.3-.4-1.3 1.3-.2a9.5 9.5 0 0 1 4.1 5.9l.2 1v-1.3c.1-1.1 0-1.7-.6-2.8zm-7.9-3.4c.1-.3.3-.4.4-.4 0 .1 0 .3-.2.5-.3.3-.3.2-.2-.1zm-1.8-2a3 3 0 0 1 1-.6c.4 0-1.2 1.3-1.5 1.3-.2 0 0-.3.5-.6zm3.5-.9c.8-1.4.7-1.6-.1-.3-.4.6-.8 1.1-1 1.1-.6 0-.5-.2.1-1l.5-1c-.1 0-.4.2-.6.6-.2.3-.6.6-.8.6-.1 0 0-.3.5-.8.4-.4.8-.7 1-.6 0 0 .4-.3.7-1l.8-1.1c.4-.3.3-.1-.1 1-.3.5-.4 1-.3 1.2.2.2-.8 2.4-1 2.4-.1 0 0-.5.3-1zM128 59l2.4-1.6c0-.4-.7-.5-2.3-.3-1.9.2-3 .8-3.4 2-.7 1.7.3 1.7 3.3-.1zm-55-2a1 1 0 0 0-.6 0l.3.1c.4 0 .5 0 .3-.1zm1.2-.3h-.5c-.2 0-.1.2.2.2.3 0 .4 0 .3-.2zm3-1.2.7-.7c-.1 0-.4 0-.6.3l-1.3.8c-.4.3-.5.4-.2.3l1.3-.7zm-14.6-2.2c-2-3.2-2-7.2-.2-9.8.8-1.1 3-2.5 4-2.5h.6l-.6-.2c-.6-.2-.6-.2-.2-.4l2.2-.6c2-.5 4-1.4 5.4-2.7a10 10 0 0 0 2.6-4.8c0-.6 0-.6-.3.3a10 10 0 0 1-7.5 6.2 21 21 0 0 0-3.2.9c-3.3 1.4-5.8 5.9-5.6 10 0 1 .3 2 .4 2.3.2.4.3.1.2-1.2l-.1-1.7.5 1.5c.4 1.3 2 3.9 2.3 3.9l-.5-1.2zm47.2-6a5 5 0 0 1 1.8-.5c.7 0 .7 0-.3-.9-1.2-1-2.4-1.3-3.3-.8a5 5 0 0 0-1.7 3.3v.8l1.2-.8c.7-.4 1.7-1 2.3-1.2zm-32.8-2c2.9-1.3 5.4-4.5 6-7.4.4-1.5 0-3.3-.6-4-.4-.4-.4-.2-.3 1.3.3 2.3-.5 4.9-2 6.9a9.4 9.4 0 0 1-6.4 4l-1.4.2 1.6-.1c1 0 2.1-.4 3.1-.9zm.4-6.5c1.6-1.7 2.6-5.4 2-7.2-.6-1.5-1.1-1.5-.8 0 .5 2.3 0 4.4-1.8 7.1-.5.9-.2 1 .6.1zm2.4-2.3c.8-1.8 1-3.5.6-4.2-.4-.6-.4-.5-.6 1.7 0 1.9-.3 2.7-.7 3.5-.3.5-.4.8-.2.6.2-.1.6-.9 1-1.6zm1.7-3.4c-.3-.6-.3-.5-.2.6a51.8 51.8 0 0 1 .3 1.6l-.1-2.2zM51.3 30c.5-1 1.5-2.7 2.3-3.7.7-1 1-1.5.7-1.2-1 1-3.3 4.3-4 5.8a27 27 0 0 0-1.5 5l.8-1.9a24 24 0 0 1 1.7-4zm16.4 1a51 51 0 0 1 4-2.3c3.3-1.8 3.1-1.9-.2-.2a28.3 28.3 0 0 0-7.5 5.1L62.7 35l1.9-1.6 3.1-2.5zm4.4-1.6c2.5-1.5 3.1-2 2.6-2.3-.2-.1-.2 0-.1.1 0 .2-.8.9-2.3 1.8a35 35 0 0 0-5.8 4l1.6-1.1a35 35 0 0 1 4-2.5zm5.4 1.8c.3-.5.4-1 .3-1.3-.2-.3-.2-.3-.4 0-.3.5-.6 2.1-.4 2.1l.5-.8zM70.6 24c.7-2.1 1.4-3 3.1-4.1 2-1.3 1.8-1.4-.3-.3-1.8 1-3.2 2.6-3.2 3.7a7 7 0 0 1-1.1 3.2l.4-.3c.4-.4.9-1.4 1.1-2.2zm2.4-.7c.4-1.3 2.4-3.5 3-3.5l.3-.1C76 19.5 75 20 74 21a7 7 0 0 0-1.6 3.5c0 .4.2-.1.6-1.2zm-9.6-4.8c0-.2-.2-.2-.3-.1-.2 0-.3.3-.3.4 0 .2.1.2.3.1l.3-.4zm13.3.1h-.8c-.3 0-.1.1.3.1h.5zm1.7-2-2.5-.1c-1.8 0-1.8 0-.5.2l2.5.2c1 0 1 0 .5-.2zm60.7 69c-.4-.5-.5-1-.4-.8.4.2 1.2 1.7 1 1.9l-.6-1zM121.6 75c-.5-.2-.3-.2.7-.2 1.7.2 1.6-.1 0-.4l-1.1-.2h1c.7 0 1-.1.6-.2-.2-.1.7-.2 2.1-.2 1.5 0 3-.2 3.6-.3.7-.2 1-.2.8 0-.2.3.9 0 2-.7 1.5-.8 2-.4.6.4a17.3 17.3 0 0 1-10.3 1.8zm4-.7h-1.7 1.7zm2.2-.3h-.5c-.2 0-.1.1.2.2.3 0 .4 0 .3-.2zm11.2-3.3c0-.3-.6-1-1.3-1.4-1.1-.8-1.8-1.6-1.8-2 0-.1.8.2 1.7.7 1 .5 1.9.8 2 .7.2-.1 0 1.4-.3 2-.2.4-.3.4-.3 0zm-1-3.3c-.4-.4-.4-.4.2-.1l.6.4c0 .2-.2.2-.7-.3zm-17.4-24.2a8 8 0 0 1-1.5-1.3c-.8-1.2-.4-2.8.8-3 .8-.2 1.4 1 1.6 3.3l.2 1.8-1.1-.8zM85.2 15.6c-.3-.3-1.1-.7-1.9-1L82 14l2.7.1c3.4 0 2.7-.2-1-.5a27 27 0 0 0-7.1.6c-.4 0 0-.2 1-.5 1.2-.4 2.3-.6 5.7-.6 5-.2 6.7 0 9.1 1.2l1.8 1h-1.3c-.9 0-1.4 0-1.7-.3-.7-.6-3.3-1.8-4-1.8-.5 0-.5.1.4.4a11 11 0 0 1 3.2 1.6l-2.3.4-2.5.4c-.2 0-.5 0-.8-.4zm10.2 0c-.7-.2-3-1.6-2.8-1.8.2-.2 2.7 1 3.2 1.6.4.5.3.6-.4.3z"/>
</svg>
