<svg xmlns="http://www.w3.org/2000/svg" xml:space="preserve" viewBox="0 0 300 300">
  <circle cx="150" cy="150" r="148" fill="#f4e3d7" />
  <path fill="#28170b" d="M150.7 46a92 92 0 0 0-4.4 0c-4.8.1-6.3.3-8.1 1a6.2 6.2 0 0 0-1.5.6h.2c4.8-.9 6.5-1 10-.8 5.1.3 6 .8 1.3.6h-3.7l1.8.7c1 .4 2.2 1 2.6 1.5.4.4.9.6 1.1.5l3.5-.6a26 26 0 0 0 3.2-.5c.2-.2-2.8-1.7-4.5-2.2-1.2-.4-1.3-.5-.6-.5 1 0 4.6 1.5 5.6 2.4.4.4 1.2.5 2.4.4h1.8l-2.5-1.3a17.2 17.2 0 0 0-8.2-1.8zm8.5 1c-.2.3 3 2.3 3.9 2.7 1 .3 1.2.2.5-.5-.6-.7-3.7-2.2-4.4-2.1zm-16.8.7a13 13 0 0 0-4.8 1.1c0 .2 1.3.7 2.8 1.2 3.6 1 3 1.3-.7.3-4-1-4.9-1-7.3.8-1.2.8-2.1 1.5-2.1 1.7 0 0 .2 0 .5-.3.7-.5 4.7-.6 6.3 0 .9.2.4.3-2.3.3-3 0-3.5.2-4.5 1-.7.6-1.2 1.5-1.5 2.5l-.3 1.5.1-1.6c0-.8.4-1.8.7-2.2 1.3-1.4.5-1-2.6 1a30 30 0 0 0-4.5 3.6 16 16 0 0 0-3 5.6l-.4.7c-.7.4 0-2.8 1.2-5.3 1.2-2.4 2.5-3.6 9-7.8 3.4-2.2 2.5-2.3-2-.2a20 20 0 0 0-4.8 3.7 19.4 19.4 0 0 1-2.2 2.1l1.2-2.1c1.5-2.3 4-4.3 6.6-5.3 2.1-.7 3-1.6 1.7-1.5-1.2 0-3.2.6-2.5.6a40.9 40.9 0 0 0-8 7 22.5 22.5 0 0 1-4.5 4.2c0-.4-.4-.3-1 .3-2.5 2.3-2.3 1.8.4-1.2a42.2 42.2 0 0 1 12-10.2c-1 0-4.4 1.6-5.7 2.6a86.4 86.4 0 0 0-12.4 7.8c0 .3 2 0 3.6-.5l2.6-1.3c.7-.6 1.1-.7.8-.3-.8 1-4 2.4-6 2.6-1.5.2-2.2.5-3.3 1.6A36 36 0 0 0 98.2 72c-.3.9-.9 1.5-2.1 2.2-1 .4-2 1.4-2.5 2-2 3-3.4 8.4-3.7 14.7-.2 4-.3 4-1.5 5.5a25 25 0 0 0-4.5 18.2c.5 2.6.2 3.3-3 7.2a42.9 42.9 0 0 0-6.5 9.8 15 15 0 0 0-.3 8.9l.8 2.9c.4 2.4 1.3 4.7 2.3 6l1 1.5-1.5 1a15 15 0 0 0-4.8 6.1c-.3.8-.5 2.4-.5 3.7 0 1.3-.2 2.3-.4 2.3-.7 0-1.2-2-1-4 .3-2.4-.3-2.4-1.6.1a8.6 8.6 0 0 0-.9 4.6c0 3.7.7 6 2.4 7.8 1.3 1.2 1.3 1.4.8 1.9a7 7 0 0 0-1.3 2.1c-1 2.3-1 7.4 0 10.4.5 1.2.7 2.1.5 2.1-.6 0-1.9-1.9-1.9-2.7 0-.7 0-.7-.4 0-.5.8-.1 3.5.8 5.4 1.8 3.4 5.8 6.6 9 7 .7.2 1.3.4 1.3.6 0 .2.6 1.1 1.3 2l1 1.7c-1 0-2.6-.9-3.7-2-1.7-1.6-1.4-.6.5 1.6a10 10 0 0 0 8 3.5c2.7 0 4.7-.7 9.3-3l3.4-1.6a185 185 0 0 1-30.6 39 78 78 0 0 0-8.6 10 93.7 93.7 0 0 0-7 13 149.9 149.9 0 0 0 97.1 36.3 149.9 149.9 0 0 0 .6 0 149.9 149.9 0 0 0 97.8-36.4 19 19 0 0 0-2-3.2c-1.4-1.6-4.8-6.7-12.3-18.4a39.7 39.7 0 0 0-11.4-13.5 26.5 26.5 0 0 1-7.3-8.8c-1.5-3-4.3-6.4-5.7-6.9-1-.3-6.3-.1-6.3.3l1.7 3 1.6 3.1c0 .8-1.7-1-3.5-3.7l-2-3.2-3.6.2c-4.7.3-7 1.2-11.6 4.8a177 177 0 0 1-8 5.8c-5.7 3.9-8 6.3-8.5 9.2l-.4 2.1-3.6-3.5a128 128 0 0 0-17.3-14 131 131 0 0 0-21.2-13.5c-3-1.5-8-3.8-10.8-5.3a47.8 47.8 0 0 1-19.9-16.3c-.8-1.4-.5-1.2 3 2.2a46.4 46.4 0 0 0 29.6 14.8 85.8 85.8 0 0 0 38.4-7.7c0-.2-2.3-1.8-5.2-3.6a202 202 0 0 1-23.3-15.1c.3-.4 23.5 11 28.7 14.3 2.5 1.4 7.5 4.7 11.3 7.1 3.8 2.5 8.4 5.3 10.3 6.3a22 22 0 0 1 7 5.4l3.6 3.4c0-.4-4.2-7.8-5.5-9.8a10 10 0 0 1-1.5-2.7c0-.3.8-1.9 1.7-3.6a24 24 0 0 0 2.6-8.2c.7-4.2 2.1-5.1 14-9 7.1-2.4 8-2.6 9-2.2 1.4.6 4.6.3 6.2-.5l1.3-.6-.9 1-.9.9 1.5-.3c2.4-.4 4.6-2 4.6-3.5 0-.4.1-.7.3-.7.7 0 .5-5.4-.2-6.7-.2-.6-.4-.9-.3-1l.3.5c.4.4.6.6.6.4a41.5 41.5 0 0 0-2.2-6.2l-.7-2.3c-.7-2.8-1.7-4.9-3-6.4-.7-1-.7-.9 0 1a44 44 0 0 0 1.6 3.4c.7 1.5.9 3.3.2 3.3-.2 0-.3-.3-.1-.7.2-.8-.5-2.5-.9-2 0 0-.4-.3-.6-.9l-.5-1v1c0 .7.2 1.4.5 1.8.4.4.5.7.2.9-.2.1-.4 0-.4-.3 0-.2-.4-.7-1-1-.7-.5-.8-.7-.4-.7.6 0 .6-.1 0-1.1-.7-1.7-1.1-1.4-1 .8v1.4-.1c-.1-.4-.4-.7-.6-.7-.2 0-.2-.1-.1-.3.3-.5-.5-2.8-1.2-3.9l-.6-.7.3.7.5 1.7c0 .5.3 1.1.6 1.4.2.3.2.5-.2.8-.3.2-.6 0-.8-.4-.3-.8-.8-1-1.1-.3-.1.3-.2.2-.2-.1 0-.4-.3-.8-.5-1-.3-.1-.3.1-.1.9.1.6.4 1.2.7 1.3.2.2.2.3-.2.3-.3 0-1 .5-1.4 1.1-1.2 1.7-3.4 2.6-6.4 2.6-1.3 0-2.5-.1-2.6-.3-.1-.2.3-.2.8-.2a12 12 0 0 0 6.3-1.4c1.8-1 1.2-1.2-.9-.1-1 .5-2.2.9-2.7.8a2.2 2.2 0 0 1-.7 0l.8-.3c2.2-.5 5-2.5 5-3.6 0-.3.2-.4.4-.3.2.2.3 0 .3-.3s-.2-.7-.5-.8c-.3-.1-.6-.5-.7-.8-.2-.5-.2-.5.3 0 .5.3.5.2 0-1-.5-1.3-.5-1.4 0-2 .5-.5.6-.5 1.1.2.8 1 .7 1.5-.1.8-1.1-1-1.3-.7-.3.5.5.6 1 1.3 1 1.6 0 .3.4.8 1 1.1.9.6.9.6.6-.2-.1-.5-.6-1.3-1-1.7-.5-.6-.6-.9-.3-.9.4 0 .3-.2-.1-.9-.8-1.1-.8-1.6 0-1.6.3 0 .8.5 1.2 1 .3.7.8 1.1 1 1 .3-.1.5.2.5.7 0 .9.6 2 1 1.7l-.5-1.8c-.3-.9-.7-1.4-.8-1.2-.2.2-.6 0-1-.7-.5-1-.5-1 .2-1.3.6-.2.7-.5.7-2.3 0-1.2.4-3 .8-4l.7-2.3c0-.1-.6-.3-1.4-.3-3.6-.1-7-.6-7-.9 0-1.4 3.4-3.2 5.1-2.7.6.2.9 0 1.3-1 .7-1.6.7-4.8.1-5.4-.2-.2-1.1-.4-1.9-.4-1.3 0-1.7.2-3.3 2-3.1 3.3-7 4.8-13.1 5.2-2.7.2-4.1.1-5.9-.4-1.2-.3-3.2-.6-4.2-.6-2.8 0-4.7-1-8.7-4.8-2-2-5.4-4.8-7.8-6.4-8.7-6-11.4-8.3-11.4-9.7 0-.8 4.3-4.8 5-4.8.3 0 1.5.2 2.8.6 1.2.3 2.8.4 3.4.3a91 91 0 0 1 3.8-.5 21 21 0 0 0 4-1l1.5-.6-1.5-.3c-2.8-.6-5.2-1.6-5.2-2.4 0-.5.4-.6 2.1-.7 3.1 0 4-1.2 2.5-3-.8-1.2-1-2.7-.1-3 .8-.3 1.5.4 2.4 2.5.6 1.4 1 1.7 1.3 1.4.5-.4 1.5 0 2.3 1 .8.8 1.3.6 3.4-1.3 2.3-2.2 2.5-2.1 4.3 1.4 1.8 3.5 2.9 8 3.8 16.2.5 5 .9 6.6 2 7.5a6 6 0 0 1 1.2 2.2c.3.7.8 1.4 1.1 1.5.9.3-4.3 0-5.3-.3-.4 0-.2 0 .4.4 1.3.6 6 .7 8 .2a11 11 0 0 0 5.5-4.1c.6-.9 1-1.4 1-1.2 0 .7-2 3.2-3.4 4.2-2 1.6-3 1.9-7.4 2.2l-4 .3 4.5-.1c3.6 0 5-.3 6.1-.8a6 6 0 0 1 1.9-.6c.7.1 3.5-3.2 4.3-5 .6-1.4.7-2.1.5-4.3-.2-2.5-.2-2.7.8-4.3.6-1 1.7-2.4 2.4-3.2a11 11 0 0 0 2.8-5.6c0-.9-.2-1-1.7-1.5a24 24 0 0 0-5.4-.5c-2 0-3.6 0-3.6-.2s.3-.5.6-.7c.9-.8.6-1.4-1.5-3.3a46.6 46.6 0 0 0-10.8-7c-5-2.5-7.5-4.4-9-6.8-2.2-3.4-2.3-3.4-7.6-3.4-7.5 0-12.6 1.5-16 4.6-1.6 1.5-3 2.2-4.3 2.2-.7 0-.7 0-.2-.8 1.3-1.8.4-5.7-2-8.8a53 53 0 0 0-15.4-9.5l-9-4.4c-.7-.4-1.4-.6-1.4-.4 0 .2.2.4.4.5.5.4.8 2.9.4 3.3-.3.3-.4.1-.4-.5 0-1.2-.7-3.4-1.2-3.7-.2-.1-.4-1.3-.5-2.7-.3-2.7.5-4.8 2.4-6.6 1.7-1.6 5.3-3.6 8.4-4.5 2.5-.8 3-1 2.7-1.5-.6-.6-4.8-2-6.3-2zm-6.4 3c1.4 0 3 .2 3.5.3.7.3.6.3-.7.3a34.5 34.5 0 0 1-4.8-.5h2zm-17.7 2.7c.1 0 .2 0 .2.2s-.2.4-.4.6c-.2 0-.3 0-.3-.2s.1-.5.3-.6h.2zm18.2.3h.5c.3.1 0 .2-.6.2-.7 0-.9 0-.5-.2h.6zm-1.7.3c.2 0-.5.5-1.9 1.5a9.1 9.1 0 0 0-4.3 5.8c-.3 1-1 2.4-1.6 3l-.6.5v-.1c.9-1 1.7-3.3 1.7-4.4 0-1.6 1.9-3.9 4.3-5.2 1.4-.7 2.2-1 2.4-1zm1.4 1.2h.2c.2.2 0 .2-.2.2-1 0-3.7 3-4.3 4.9-.5 1.5-.9 2.2-.9 1.7 0-1.2 1.4-4 2.3-5 1.2-1 2.4-1.8 3-1.8zM106 62.6c.2 0-.3.7-1.1 1.8a41.4 41.4 0 0 0-6.6 13.4c0-.7 1.3-5.1 2.1-7a37.1 37.1 0 0 1 5.6-8.2zm28 2.9h.3c.7.5 0 1.2-3.7 3.2a70 70 0 0 0-7.7 5c0-.4 4.6-3.6 8-5.6 2.1-1.2 3.4-2.2 3.2-2.4 0-.2-.1-.2 0-.2zm-.6.3-3.3 2a71 71 0 0 0-5.5 3.1l-4.4 3.4-2.6 2.3 1.8-2a39.4 39.4 0 0 1 14-8.8zm5 3.3.2.4c.1.3 0 1.1-.4 1.8l-.7 1c-.3 0 .2-2.2.5-2.9l.3-.3zm1.2 1.2c.2 0 .6.5 1 1.5 1 2.5-.5 7.7-2.7 10-1 1.2-1.6 1.1-.8-.1 2.5-3.7 3.2-6.8 2.5-10-.3-1-.2-1.4 0-1.4zm-3.2 2 .1.5c0 1.5-2 5.3-3.6 6.7-2 1.7-4.6 3-7.6 3.8l-3 .8c-.6.2-.6.3.2.5l1 .2h-.9c-1.5.1-4.5 2-5.6 3.6-2.5 3.6-2.4 9.2.2 13.7.6.8.9 1.5.8 1.6a16 16 0 0 1-3.2-5.5l-.7-2 .1 2.3c.2 1.9.1 2.3-.2 1.7a13 13 0 0 1-.6-3.3c-.3-5.6 3.2-11.8 7.8-13.8.9-.4 2.8-1 4.4-1.3 5-1 8.9-4.2 10.4-8.6l.4-1zm5.3 0 .3.4c.6 1.1.4 3.5-.7 6-.4 1-1 2-1.3 2.2-.3.3-.2-.2.3-1 .6-1 .8-2.2 1-4.7.1-2.1.2-2.9.4-2.9zm1.6 1.1.2.4c.3.5.4 2 .3 3.2a5.2 5.2 0 0 1-.1 1.2V78a72.2 72.2 0 0 0-.4-4.5zm1.2 1.4.4.2c.9 1 1.3 3.5.9 5.6-.9 4-4.5 8.4-8.4 10.3A13 13 0 0 1 133 92l-2.2.1 2-.3a13 13 0 0 0 9-5.5c2-2.8 3-6.4 2.7-9.5-.1-1.6-.2-2.1 0-2.1zm53 7h-.3c-1.7.3-2.3 2.5-1.1 4.2a11 11 0 0 0 2 1.9l1.6 1-.2-2.5c-.4-3-1-4.6-2-4.6zm-51.4 7v1.7c0 1.7-1.4 6.1-2.9 9-.4.9-.6 1.6-.5 1.7 0 .1 1 .7 2.1 1.2 2.7 1.3 5 3.4 6.2 5.7.8 1.5 1 2.2 1 3.8l-.2 2-.2-1.6c-.6-3.1-2.8-6.3-5.8-8.3-2.3-1.5-2.9-1.4-1.7.3l1 1.8c0 .2-.4-.2-.8-.8-1-1.6-2.5-2.5-3.2-2l-.5.7c0 .5 2.2 2 3 2 .8 0 1.4 1.8 1.4 4 0 1.9-.6 2.1-.6.3-.1-1.8-.7-2.8-2.6-4.5l-1.5-1.4-.8 1c-1.4 1.4-3.3 2.2-6.7 3-3.6.6-4.6 1.2-5.3 3.2l-.6 1.5.2-1.3c.4-2.1 1.7-3.1 5-3.8 3.6-.7 5-1.4 6.5-2.9 1.5-1.6.6-2-1.8-.8a34 34 0 0 1-8.5 2.2c-3.1.4-1.8-.1 2.5-1 4.2-.8 7.2-1.9 7.2-2.5 0-.2.3-.3.7-.2l.4.1-.4-.3c-.4-.3-1-.2-2.2.2-2 .7-4.4.7-6.3-.2l-2.5-.9a9 9 0 0 1-4.8-3.9c-1-2-1-2.8.1-1 1 1.8 2.7 3 5.2 3.8 2.7.8 4.7.6 7.5-.5 3.2-1.2 7-5 9-8.7l1.4-2.6zm35.6 1.4c1 0 2.2.5 3.3 1.6 1.4 1.2 1.4 1.2.5 1.2-.6 0-1.7.3-2.5.5-.9.3-2.3 1.1-3.2 1.7l-1.6 1.2v-1.2a7 7 0 0 1 2.3-4.6c.4-.2.8-.4 1.2-.4zm-37.5 4-.3.1a6 6 0 0 0-1.1 1.7c-.4.8-.9 1.4-1 1.3-.2-.1-.8.3-1.4.9-.6.6-.9 1-.6 1 .2 0 .7-.3 1-.9.4-.5.7-.8.8-.7l-.6 1.2c-1 1.3-1 1.6-.2 1.6.2 0 1-.7 1.4-1.6 1.1-1.9 1.3-1.6.2.5-.4.8-.6 1.4-.5 1.4.3 0 1.7-3 1.5-3.3-.2-.2 0-1 .3-1.7l.5-1.5zm-5.3 5.4c-.2 0-.8.5-1.4 1-.6.5-1 .9-.7.9.4 0 2.6-1.9 2.1-1.9zm1.5 3.1-.3.5c-.2.5-.2.6.2.2.2-.2.3-.5.2-.6zm-2 1.4h.1c.1 0-.3.5-1 1l-1.9 1c-.4.1-.2 0 .4-.4.6-.3 1.4-.9 1.7-1.2l.8-.4zm-5.2 2.6h.3c.1.2-.1.3-.5.3s-.5-.1-.2-.2l.4-.1zm-1.8.4h.4c.3.1 0 .2-.4.2-.5 0-.7 0-.5-.2h.5zm78.5.1c1.2 0 1.8.1 1.8.5a17 17 0 0 1-3.3 2.2c-4.3 2.5-5.6 2.5-4.7.2.7-1.6 2.1-2.5 4.8-2.8h1.4zm-65.3 8.6v.3c0 .2-.2.7-.5 1l-.5.5.3-.7.7-1zm77.4 5.3.5.4c.8.6 1 .7 1 .4l-.9-.5-.6-.3zm-2.6.2c0 .6 1 1.7 2.6 2.8 1 .7 1.8 1.6 1.8 2 0 .5 0 .5.5-.1.4-.8.7-2.9.3-2.6a11 11 0 0 1-2.7-1l-2.5-1.1zm-135 4-.3 1.3c-.5 2.3-1.6 4.3-2.7 4.8-1.6.9-3.6 3.2-4.8 5.9-.7 1.3-1.2 2.6-1.2 2.8 0 1-.7.3-.9-1-.5-3.1.7-5.9 4-9 1.2-1.3 3-2.9 4-3.5l1.8-1.3zm130.4 3.1a4 4 0 0 0-1.6.6c-1.7 1-3.2 1.4-2.9.9.2-.2-.2-.2-1.1 0-.8.2-3 .4-5 .5-2 0-3.3.1-3 .2.5.2.2.3-.8.4H199l1.5.3c2.3.4 2.4.7 0 .6-1.4-.2-1.7-.1-1 .1 3 1.1 10.4-.2 14.4-2.4 1.2-.8 1.4-1.2.9-1.2zm-6.8 2.2.2.1c.2.1 0 .2-.4.2-.5 0-.5 0-.3-.2h.5zm-4 .4a10.3 10.3 0 0 1 1.4.1h-2.9.2l1.2-.1zm3.5 14.6v.2c0 .2-.7.8-1.4 1.3-1.2.8-3.5 1-5 .4-.5-.2 0-.3 1.6-.3 1.8 0 2.5-.3 3.6-1l1.2-.6zm15.9.2c-.2 0 0 .6.5 1.3.4.8.9 1.4 1 1.3.1-.2-1-2.3-1.5-2.6zm-15.3 1.3c.5 0-.1 1-1.6 2-1 .7-4.3.8-5.7.3-.5-.2.1-.4 2-.5 2-.1 3-.4 4-1.2l1.3-.6zm3.9.6c0 .2-.2.7-.5 1.1-.3.4-.5.6-.5.4 0-.2.2-.7.5-1.1.2-.3.4-.4.5-.4zm5 .2c.1 0 .2.1.2.3 0 .3-.2.4-.4.4s-.3-.1-.2-.4l.4-.3zm-2 .2v1c0 1.5-1.2 3.4-2.3 3.8-.5.1-.6.3-.4.5.6.3-4 .3-6.3 0-2.5-.4-2.5-.7 0-.5 1.6 0 1.9 0 1.2-.2-.7-.3-.6-.3 1-.4a7 7 0 0 0 5.8-2.9l1-1.3zm1.6 1.3v.3c-.4 1.7-1 2.7-2 3.2-1.5.7-1.8.6-.5-.2.6-.4 1.4-1.5 2-2.3l.5-1zm.5.8.3.4c.5 1.2-.8 3.1-2.5 4-.9.3-2 .6-2.5.6h-.6l.8-.3c2.3-.6 3.8-1.9 4.2-3.8l.3-.9zm-5.5.2h.2c0 .3-.8.6-1.5.8a9.4 9.4 0 0 1-6-.5h2.5a14.6 14.6 0 0 0 4.8-.3zm10 3.2h.6c.5.2.9.4.9.6l-.1.3-1-.3c-.4 0-.8-.2-.8-.4l.4-.2zm4 1.6c.5 0 3.4 3 3.4 3.4 0 .3.4 1 1 1.7l.7 1.2a11 11 0 0 1-2.6-3.3 8 8 0 0 0-1.7-2c-.7-.5-1-1-.8-1zm-14.7 0 .3.2c.1.1-.1.2-.5.2s-.5-.1-.2-.2l.4-.1zm11 2.3h.5c.3.2 0 .3-.4.3-.5 0-.7-.1-.5-.2l.5-.1zm1.7.5 2.5 2.4-2.5-2.4zm3 1c.6 0 2 1 2.7 2.1.5.6.7 1.1.6 1.1 0 0-.5-.4-.8-1a6.6 6.6 0 0 0-1.8-1.6c-.6-.4-1-.7-.7-.7zm-6.4 0c1.2 0 4.9 1.8 6.7 3.4 1.6 1.4 1.8 1.8.2.5-1.4-1.2-4-2.6-6-3.3-1.4-.5-1.6-.7-1-.7z"/>
</svg>
